<svg xmlns="http://www.w3.org/2000/svg" viewBox="6.5 0 78.9 70">
  <defs>
    <linearGradient id="gradient" x1="0%" y1="20%" x2="100%" y2="120%">
      <stop offset="0%" style="stop-color:#747bff"/>
      <stop offset="100%" style="stop-color:#24eb5c"/>
    </linearGradient>
  </defs>
  <path fill="url(#gradient)" d="M20.5 70H6.5V0H20.5ZM29.4 21Q29.4 16.6 31 12.8Q32.7 9 35.6 6.2Q38.4 3.3 42.2 1.7Q46 0 50.4 0H82.5V14H50.4Q48.9 14 47.6 14.5Q46.4 15.1 45.4 16Q44.5 17 43.9 18.3Q43.4 19.5 43.4 21Q43.4 22.5 43.9 23.7Q44.5 25 45.4 26Q46.4 26.9 47.6 27.5Q48.9 28 50.4 28H64.4Q68.7 28 72.6 29.7Q76.4 31.3 79.3 34.1Q82.1 37 83.7 40.8Q85.4 44.7 85.4 49Q85.4 53.4 83.7 57.2Q82.1 61 79.3 63.8Q76.4 66.7 72.6 68.3Q68.7 70 64.4 70H33.3V56H64.4Q65.9 56 67.1 55.5Q68.4 54.9 69.3 54Q70.3 53 70.8 51.7Q71.4 50.5 71.4 49Q71.4 47.5 70.8 46.3Q70.3 45 69.3 44.1Q68.4 43.1 67.1 42.6Q65.9 42 64.4 42H50.4Q46 42 42.2 40.4Q38.4 38.7 35.6 35.9Q32.7 33 31 29.2Q29.4 25.3 29.4 21Z"/>
</svg>
